<svg width="20.250000" height="12.691406" viewBox="0 0 20.25 12.6914" fill="none" xmlns="http://www.w3.org/2000/svg" xmlns:xlink="http://www.w3.org/1999/xlink">
                    <defs/>
                    <path id="" d="M9.84 3.09C9.84 4.32 9.24 5.13 8.15 5.69C9.66 6.11 10.4 7.27 10.4 8.82C10.4 11.35 8.29 12.44 6.01 12.44L0 12.44L0 0L5.87 0C7.98 0 9.84 0.59 9.84 3.09ZM18.24 0.63L18.24 1.86L13.21 1.86L13.21 0.63L18.24 0.63ZM5.3 2.1L2.7 2.1L2.7 5.02L5.48 5.02C6.46 5.02 7.17 4.6 7.17 3.55C7.17 2.39 6.29 2.1 5.3 2.1ZM15.85 3.16C18.66 3.16 20.25 5.41 20.25 8.08C20.25 8.22 20.21 8.4 20.21 8.54L13.71 8.54C13.71 9.98 14.48 10.82 15.92 10.82C16.66 10.82 17.64 10.44 17.89 9.66L20.07 9.66C19.4 11.7 18 12.69 15.85 12.69C13 12.69 11.21 10.75 11.21 7.94C11.21 5.23 13.07 3.16 15.85 3.16ZM15.75 5.06C14.58 5.06 13.78 5.8 13.71 6.96L17.75 6.96C17.64 5.76 17.01 5.06 15.75 5.06ZM2.7 10.33L5.66 10.33C6.75 10.33 7.66 9.94 7.66 8.68C7.66 7.41 6.92 6.89 5.69 6.89L2.7 6.89L2.7 10.33Z" fill="#FFFFFF" fill-opacity="1.000000" fill-rule="evenodd"/>
                </svg>