<svg width="14.000000" height="16.000000" viewBox="0 0 14 16" fill="none" xmlns="http://www.w3.org/2000/svg" xmlns:xlink="http://www.w3.org/1999/xlink">
	<desc>
			Created with Pixso.
	</desc>
	<defs/>
	<path id="" d="M11.5 4.5C11.5 7 9.46 9 7 9C4.5 9 2.5 7 2.5 4.5C2.5 2.03 4.5 0 7 0C9.46 0 11.5 2.03 11.5 4.5ZM10 4.5C10 2.87 8.62 1.5 7 1.5C5.34 1.5 4 2.87 4 4.5C4 6.15 5.34 7.5 7 7.5C8.62 7.5 10 6.15 10 4.5ZM7 10C8.46 10 8.87 9.5 9.78 9.5C12.09 9.5 14 11.4 14 13.71L14 14.5C14 15.34 13.31 16 12.5 16L1.5 16C0.65 16 0 15.34 0 14.5L0 13.71C0 11.4 1.87 9.5 4.18 9.5C5.09 9.5 5.5 10 7 10ZM1.5 13.71L1.5 14.5L12.5 14.5L12.5 13.71C12.5 12.21 11.28 11 9.78 11C9.31 11 8.59 11.5 7 11.5C5.37 11.5 4.65 11 4.18 11C2.68 11 1.5 12.21 1.5 13.71Z" fill="#FE461C" fill-opacity="1.000000" fill-rule="evenodd"/>
</svg>
