<svg width="16.000000" height="16.001831" viewBox="0 0 16 16.0018" fill="none" xmlns="http://www.w3.org/2000/svg" xmlns:xlink="http://www.w3.org/1999/xlink">
	<desc>
			Created with Pixso.
	</desc>
	<defs/>
	<path id="Vector" d="M2.4 2.4C2.45 1.75 2.75 1.14 3.23 0.69C3.71 0.24 4.34 0 5 0L12.2 0C12.69 0 13.19 0.09 13.65 0.28C14.11 0.48 14.53 0.76 14.88 1.11C15.23 1.46 15.51 1.88 15.71 2.34C15.9 2.8 16 3.3 16 3.8L16 8.59C16 9.25 15.75 9.88 15.3 10.36C14.85 10.84 14.24 11.14 13.59 11.19C13.54 11.84 13.24 12.45 12.76 12.9C12.28 13.35 11.65 13.6 11 13.6L6.93 13.6L4 15.8C3.34 16.29 2.4 15.82 2.4 15L2.4 13.59C1.74 13.54 1.13 13.24 0.69 12.76C0.24 12.28 6.1e-5 11.65 0 11L0 5C0 4.34 0.24 3.71 0.69 3.23C1.14 2.75 1.75 2.45 2.4 2.4ZM3.61 2.4L11 2.4C11.68 2.4 12.35 2.67 12.83 3.16C13.32 3.64 13.6 4.31 13.6 5L13.6 9.98C13.93 9.93 14.23 9.77 14.45 9.51C14.67 9.26 14.8 8.93 14.8 8.59L14.8 3.8C14.8 3.11 14.52 2.44 14.03 1.96C13.55 1.47 12.88 1.19 12.2 1.19L5 1.19C4.66 1.19 4.33 1.32 4.08 1.54C3.82 1.76 3.66 2.06 3.61 2.4ZM2.59 12.4L3.59 12.4L3.59 14.6L6.53 12.4L11 12.4C11.37 12.4 11.72 12.25 11.98 11.99C12.25 11.72 12.4 11.37 12.4 11L12.4 5C12.4 4.62 12.25 4.27 11.98 4.01C11.72 3.74 11.37 3.59 11 3.59L2.59 3.59C2.22 3.59 1.87 3.74 1.61 4.01C1.34 4.27 1.2 4.62 1.2 5L1.2 11C1.2 11.77 1.82 12.4 2.59 12.4Z" fill="#FE461C" fill-opacity="1.000000" fill-rule="nonzero"/>
</svg>
