<svg width="20.000000" height="14.667114" viewBox="0 0 20 14.6671" fill="none" xmlns="http://www.w3.org/2000/svg" xmlns:xlink="http://www.w3.org/1999/xlink">
	<desc>
			Created with Pixso.
	</desc>
	<defs/>
	<path id="Vector" d="M19.96 7.1C19.17 5.07 17.81 3.32 16.04 2.06C14.27 0.79 12.17 0.08 10 0C7.82 0.08 5.72 0.79 3.95 2.06C2.18 3.32 0.82 5.07 0.03 7.1C-0.02 7.25 -0.02 7.41 0.03 7.56C0.82 9.58 2.18 11.34 3.95 12.6C5.72 13.86 7.82 14.58 10 14.66C12.17 14.58 14.27 13.86 16.04 12.6C17.81 11.34 19.17 9.58 19.96 7.56C20.01 7.41 20.01 7.25 19.96 7.1ZM10 13.33C6.46 13.33 2.73 10.71 1.37 7.33C2.73 3.95 6.46 1.33 10 1.33C13.53 1.33 17.26 3.95 18.62 7.33C17.26 10.71 13.53 13.33 10 13.33Z" fill="#FE461C" fill-opacity="1.000000" fill-rule="nonzero"/>
	<path id="Vector" d="M9.99 3.33C9.2 3.33 8.43 3.56 7.77 4C7.11 4.44 6.6 5.07 6.3 5.8C6 6.53 5.92 7.33 6.07 8.11C6.23 8.88 6.61 9.6 7.17 10.16C7.73 10.72 8.44 11.1 9.21 11.25C9.99 11.41 10.79 11.33 11.53 11.02C12.26 10.72 12.88 10.21 13.32 9.55C13.76 8.89 14 8.12 14 7.33C14 6.27 13.57 5.25 12.82 4.5C12.07 3.75 11.06 3.33 9.99 3.33ZM9.99 10C9.47 10 8.95 9.84 8.51 9.55C8.07 9.25 7.73 8.84 7.53 8.35C7.33 7.86 7.28 7.33 7.38 6.81C7.48 6.29 7.74 5.82 8.11 5.44C8.48 5.07 8.96 4.82 9.47 4.71C9.99 4.61 10.53 4.66 11.02 4.86C11.5 5.07 11.92 5.41 12.21 5.85C12.51 6.29 12.66 6.8 12.66 7.33C12.66 8.04 12.38 8.71 11.88 9.21C11.38 9.71 10.7 10 9.99 10Z" fill="#FE461C" fill-opacity="1.000000" fill-rule="nonzero"/>
</svg>
