<svg width="15.750000" height="15.750000" viewBox="0 0 15.75 15.75" fill="none" xmlns="http://www.w3.org/2000/svg" xmlns:xlink="http://www.w3.org/1999/xlink">
                    <defs/>
                    <path id="" d="M14.43 1.31C15.34 2.23 15.62 3.35 15.69 4.62C15.76 5.92 15.76 9.82 15.69 11.12C15.62 12.39 15.34 13.48 14.43 14.43C13.51 15.34 12.39 15.62 11.12 15.69C9.82 15.76 5.92 15.76 4.62 15.69C3.35 15.62 2.26 15.34 1.31 14.43C0.4 13.48 0.12 12.39 0.05 11.12C-0.02 9.82 -0.02 5.92 0.05 4.62C0.12 3.35 0.4 2.23 1.31 1.31C2.26 0.4 3.35 0.12 4.62 0.05C5.92 -0.02 9.82 -0.02 11.12 0.05C12.39 0.12 13.51 0.4 14.43 1.31ZM12.53 14C13.2 13.72 13.76 13.2 14 12.49C14.36 11.63 14.34 9.72 14.33 8.45C14.32 8.23 14.32 8.03 14.32 7.85C14.32 7.68 14.32 7.49 14.33 7.27C14.34 6.02 14.36 4.11 14 3.21C13.72 2.54 13.2 1.98 12.53 1.74C11.63 1.38 9.72 1.4 8.47 1.41C8.25 1.42 8.06 1.42 7.89 1.42C7.71 1.42 7.51 1.42 7.29 1.41C6.02 1.4 4.11 1.38 3.25 1.74C2.54 2.02 2.02 2.54 1.74 3.21C1.38 4.11 1.4 6.02 1.41 7.27C1.42 7.49 1.42 7.68 1.42 7.85C1.42 8.03 1.42 8.23 1.41 8.45C1.4 9.72 1.38 11.63 1.74 12.49C2.02 13.2 2.54 13.72 3.25 14C4.11 14.36 6.02 14.34 7.29 14.33C7.51 14.32 7.71 14.32 7.89 14.32C8.06 14.32 8.25 14.32 8.47 14.33C9.72 14.34 11.63 14.36 12.53 14ZM12.07 2.72C12.6 2.72 13.02 3.14 13.02 3.67C13.02 4.2 12.6 4.62 12.07 4.62C11.54 4.62 11.12 4.2 11.12 3.67C11.12 3.14 11.54 2.72 12.07 2.72ZM3.84 7.85C3.84 5.64 5.64 3.81 7.89 3.81C10.1 3.81 11.93 5.64 11.93 7.85C11.93 10.1 10.1 11.9 7.89 11.9C5.64 11.9 3.84 10.1 3.84 7.85ZM5.25 7.85C5.25 9.33 6.45 10.49 7.89 10.49C9.33 10.49 10.49 9.33 10.49 7.85C10.49 6.41 9.33 5.25 7.89 5.25C6.41 5.25 5.25 6.41 5.25 7.85Z" fill="#FFFFFF" fill-opacity="1.000000" fill-rule="evenodd"/>
                </svg>  