<svg width="15.750000" height="15.714844" viewBox="0 0 15.75 15.7148" fill="none" xmlns="http://www.w3.org/2000/svg" xmlns:xlink="http://www.w3.org/1999/xlink">          
                    <defs/>
                    <path id="" d="M3.76 1.86C3.76 2.91 2.91 3.79 1.86 3.79C0.84 3.79 0 2.91 0 1.86C0 0.84 0.84 0 1.86 0C2.91 0 3.76 0.84 3.76 1.86ZM15.75 15.71L12.48 15.71L12.48 10.61C12.48 9.38 12.44 7.83 10.75 7.83C9.07 7.83 8.82 9.14 8.82 10.51L8.82 15.71L5.55 15.71L5.55 5.2L8.68 5.2L8.68 6.64L8.71 6.64C9.17 5.83 10.23 4.95 11.81 4.95C15.11 4.95 15.75 7.13 15.75 9.94L15.75 15.71ZM3.51 5.2L3.51 15.71L0.24 15.71L0.24 5.2L3.51 5.2Z" fill="#FFFFFF" fill-opacity="1.000000" fill-rule="evenodd"/>
                </svg>  