<svg width="14.015625" height="13.640625" viewBox="0 0 14.0156 13.6406" fill="none" xmlns="http://www.w3.org/2000/svg" xmlns:xlink="http://www.w3.org/1999/xlink">
	<desc>
			Created with Pixso.
	</desc>
	<defs/>
	<path id="ï " d="M5.96 1.99C5.68 1.67 5.65 1.21 5.96 0.89L6.65 0.21C6.96 -0.08 7.43 -0.08 7.71 0.21L13.78 6.3C14.09 6.58 14.09 7.05 13.78 7.33L7.71 13.42C7.43 13.71 6.93 13.71 6.65 13.42L5.96 12.74C5.65 12.42 5.68 11.96 5.96 11.64L9.75 8.08L0.75 8.08C0.34 8.08 0 7.74 0 7.33L0 6.33C0 5.89 0.34 5.58 0.75 5.58L9.75 5.58L5.96 1.99Z" fill="#FFFFFF" fill-opacity="1.000000" fill-rule="evenodd"/>
</svg>
