<svg width="38.000000" height="33.250000" viewBox="0 0 38 33.25" fill="none" xmlns="http://www.w3.org/2000/svg" xmlns:xlink="http://www.w3.org/1999/xlink">
	<desc>
			Created with Pixso.
	</desc>
	<defs/>
	<path id="" d="M34.43 33.25L24.93 33.25C23 33.25 21.37 31.61 21.37 29.68L21.37 11.87C21.37 5.26 26.71 0 33.25 0L33.84 0C34.88 0 35.62 0.74 35.62 1.78L35.62 5.34C35.62 6.3 34.88 7.12 33.84 7.12L33.25 7.12C30.65 7.12 28.5 9.2 28.5 11.87L28.5 16.62L34.43 16.62C36.44 16.62 38 18.18 38 20.18L38 29.68C38 31.61 36.44 33.25 34.43 33.25ZM13.06 33.25L3.56 33.25C1.63 33.25 0 31.61 0 29.68L0 11.87C0 5.26 5.34 0 11.87 0L12.46 0C13.5 0 14.25 0.74 14.25 1.78L14.25 5.34C14.25 6.3 13.5 7.12 12.46 7.12L11.87 7.12C9.27 7.12 7.12 9.2 7.12 11.87L7.12 16.62L13.06 16.62C15.06 16.62 16.62 18.18 16.62 20.18L16.62 29.68C16.62 31.61 15.06 33.25 13.06 33.25Z" fill="#FE461C" fill-opacity="1.000000" fill-rule="evenodd"/>
</svg>
